<mxfile host="app.diagrams.net" modified="2023-08-17T16:41:22.671Z" agent="Mozilla/5.0 (Windows NT 10.0; Win64; x64) AppleWebKit/537.36 (KHTML, like Gecko) Chrome/115.0.0.0 Safari/537.36" etag="gIbYQqzVj6iXVd2a8mXW" version="21.6.8" type="device">
  <diagram name="Страница — 1" id="BVPntijK4fkDrc1FMcTO">
    <mxGraphModel dx="2261" dy="758" grid="1" gridSize="10" guides="1" tooltips="1" connect="1" arrows="1" fold="1" page="1" pageScale="1" pageWidth="827" pageHeight="1169" math="0" shadow="0">
      <root>
        <mxCell id="0" />
        <mxCell id="1" parent="0" />
        <mxCell id="SLfxozKUtzvzvvXyLlPY-1" value="WAN" style="ellipse;shape=cloud;whiteSpace=wrap;html=1;" vertex="1" parent="1">
          <mxGeometry x="300" y="80" width="130" height="110" as="geometry" />
        </mxCell>
        <mxCell id="SLfxozKUtzvzvvXyLlPY-2" value="Client / FrontEnd" style="swimlane;whiteSpace=wrap;html=1;" vertex="1" parent="1">
          <mxGeometry x="720" y="20" width="510" height="570" as="geometry" />
        </mxCell>
        <mxCell id="SLfxozKUtzvzvvXyLlPY-12" value="Список книг" style="swimlane;whiteSpace=wrap;html=1;" vertex="1" parent="SLfxozKUtzvzvvXyLlPY-2">
          <mxGeometry x="30" y="80" width="200" height="60" as="geometry" />
        </mxCell>
        <mxCell id="SLfxozKUtzvzvvXyLlPY-13" value="Информация о книге" style="swimlane;whiteSpace=wrap;html=1;" vertex="1" parent="SLfxozKUtzvzvvXyLlPY-2">
          <mxGeometry x="30" y="155" width="200" height="60" as="geometry" />
        </mxCell>
        <mxCell id="SLfxozKUtzvzvvXyLlPY-14" value="Корзина покупок" style="swimlane;whiteSpace=wrap;html=1;" vertex="1" parent="SLfxozKUtzvzvvXyLlPY-2">
          <mxGeometry x="30" y="415" width="200" height="60" as="geometry" />
        </mxCell>
        <mxCell id="SLfxozKUtzvzvvXyLlPY-15" value="Список магазинов / Контакты" style="swimlane;whiteSpace=wrap;html=1;" vertex="1" parent="SLfxozKUtzvzvvXyLlPY-2">
          <mxGeometry x="30" y="235" width="200" height="60" as="geometry" />
        </mxCell>
        <mxCell id="SLfxozKUtzvzvvXyLlPY-16" value="Регистрация / Авторизация" style="swimlane;whiteSpace=wrap;html=1;startSize=23;" vertex="1" parent="SLfxozKUtzvzvvXyLlPY-2">
          <mxGeometry x="30" y="325" width="200" height="60" as="geometry" />
        </mxCell>
        <mxCell id="SLfxozKUtzvzvvXyLlPY-18" value="Закладки / Избранное" style="swimlane;whiteSpace=wrap;html=1;" vertex="1" parent="SLfxozKUtzvzvvXyLlPY-2">
          <mxGeometry x="30" y="495" width="200" height="60" as="geometry" />
        </mxCell>
        <mxCell id="SLfxozKUtzvzvvXyLlPY-19" value="Администрирование" style="swimlane;whiteSpace=wrap;html=1;" vertex="1" parent="SLfxozKUtzvzvvXyLlPY-2">
          <mxGeometry x="270" y="80" width="200" height="200" as="geometry" />
        </mxCell>
        <mxCell id="SLfxozKUtzvzvvXyLlPY-21" value="HTML / CSS / Bootstrap 5 / React JS" style="text;html=1;strokeColor=none;fillColor=none;align=center;verticalAlign=middle;whiteSpace=wrap;rounded=0;" vertex="1" parent="SLfxozKUtzvzvvXyLlPY-2">
          <mxGeometry x="10" y="30" width="230" height="30" as="geometry" />
        </mxCell>
        <mxCell id="SLfxozKUtzvzvvXyLlPY-3" value="Server / BackEnd" style="swimlane;whiteSpace=wrap;html=1;" vertex="1" parent="1">
          <mxGeometry x="-360" y="40" width="320" height="510" as="geometry" />
        </mxCell>
        <mxCell id="SLfxozKUtzvzvvXyLlPY-7" value="AuthorsController" style="swimlane;fontStyle=0;childLayout=stackLayout;horizontal=1;startSize=30;horizontalStack=0;resizeParent=1;resizeParentMax=0;resizeLast=0;collapsible=1;marginBottom=0;whiteSpace=wrap;html=1;" vertex="1" parent="SLfxozKUtzvzvvXyLlPY-3">
          <mxGeometry x="30" y="80" width="140" height="60" as="geometry" />
        </mxCell>
        <mxCell id="SLfxozKUtzvzvvXyLlPY-10" value="GET api/Authors" style="text;strokeColor=none;fillColor=none;align=left;verticalAlign=middle;spacingLeft=4;spacingRight=4;overflow=hidden;points=[[0,0.5],[1,0.5]];portConstraint=eastwest;rotatable=0;whiteSpace=wrap;html=1;" vertex="1" parent="SLfxozKUtzvzvvXyLlPY-7">
          <mxGeometry y="30" width="140" height="30" as="geometry" />
        </mxCell>
        <mxCell id="SLfxozKUtzvzvvXyLlPY-20" value="C# / MS SQL / Entity Framework / WebAPI" style="text;html=1;strokeColor=none;fillColor=none;align=center;verticalAlign=middle;whiteSpace=wrap;rounded=0;" vertex="1" parent="SLfxozKUtzvzvvXyLlPY-3">
          <mxGeometry x="10" y="30" width="260" height="30" as="geometry" />
        </mxCell>
        <mxCell id="SLfxozKUtzvzvvXyLlPY-4" value="" style="endArrow=classic;html=1;rounded=0;entryX=0.954;entryY=0.355;entryDx=0;entryDy=0;entryPerimeter=0;" edge="1" parent="1" target="SLfxozKUtzvzvvXyLlPY-1">
          <mxGeometry width="50" height="50" relative="1" as="geometry">
            <mxPoint x="720" y="110" as="sourcePoint" />
            <mxPoint x="440" y="150" as="targetPoint" />
          </mxGeometry>
        </mxCell>
        <mxCell id="SLfxozKUtzvzvvXyLlPY-6" value="&lt;h1&gt;GET&lt;/h1&gt;&lt;p&gt;&lt;font style=&quot;font-size: 21px;&quot;&gt;&lt;b&gt;/api/Authors&lt;/b&gt;&lt;/font&gt;&lt;/p&gt;" style="text;html=1;strokeColor=none;fillColor=none;spacing=5;spacingTop=-20;whiteSpace=wrap;overflow=hidden;rounded=0;" vertex="1" parent="1">
          <mxGeometry x="510" y="80" width="190" height="90" as="geometry" />
        </mxCell>
        <mxCell id="SLfxozKUtzvzvvXyLlPY-11" value="" style="endArrow=classic;html=1;rounded=0;exitX=0.07;exitY=0.4;exitDx=0;exitDy=0;exitPerimeter=0;entryX=1;entryY=0.5;entryDx=0;entryDy=0;" edge="1" parent="1" source="SLfxozKUtzvzvvXyLlPY-1" target="SLfxozKUtzvzvvXyLlPY-10">
          <mxGeometry width="50" height="50" relative="1" as="geometry">
            <mxPoint x="230" y="170" as="sourcePoint" />
            <mxPoint x="280" y="120" as="targetPoint" />
          </mxGeometry>
        </mxCell>
      </root>
    </mxGraphModel>
  </diagram>
</mxfile>
